Coordinates
version=1
nRows=27
nColumns=12
inDegrees=yes

Units are S.I. units (second, meters, Newtons, ...)
Angles are in degrees

endheader
time	SC_y	SC_z	SC_x	AC_y	AC_z	AC_x	GH_y	GH_z	GH_yy	EL_x	PS_y
       0.0              -29.03          13.17          69.99          51.94         -2.856         -13.55          176.4          83.79          174.5          107.7          13.16
   0.02726              -29.03          13.17          69.98          51.93         -2.856         -13.55          176.4          83.78          174.4          107.7          13.17
   0.05451              -29.03          13.17          69.98          51.93         -2.856         -13.55          176.4          83.76          174.4          107.7          13.17
   0.08177              -29.03          13.17          69.97          51.93         -2.857         -13.55          176.3          83.75          174.3          107.7          13.18
     0.109              -29.03          13.17          69.97          51.93         -2.857         -13.55          176.3          83.74          174.3          107.7          13.18
    0.1363              -29.02          13.17          69.96          51.93         -2.857         -13.55          176.3          83.73          174.2          107.7          13.19
    0.1635              -29.02          13.17          69.95          51.93         -2.857         -13.55          176.2          83.72          174.1          107.7           13.2
    0.1908              -29.02          13.17          69.95          51.93         -2.857         -13.54          176.2           83.7          174.1          107.7          13.21
    0.2181              -29.02          13.17          69.94          51.93         -2.857         -13.54          176.2          83.69          174.0          107.7          13.22
    0.2453              -29.02          13.17          69.93          51.93         -2.857         -13.54          176.1          83.67          173.9          107.7          13.23
    0.2726              -29.02          13.17          69.92          51.92         -2.857         -13.54          176.1          83.65          173.8          107.7          13.24
    0.2998              -29.02          13.17          69.91          51.92         -2.857         -13.53          176.0          83.63          173.7          107.7          13.25
    0.3271              -29.02          13.17           69.9          51.92         -2.857         -13.53          176.0          83.61          173.6          107.7          13.26
    0.3543              -29.01          13.17          69.89          51.92         -2.857         -13.53          175.9          83.59          173.5          107.7          13.27
    0.3816              -29.01          13.17          69.88          51.92         -2.858         -13.53          175.9          83.57          173.4          107.7          13.29
    0.4089              -29.01          13.18          69.86          51.92         -2.858         -13.52          175.8          83.54          173.3          107.7           13.3
    0.4361              -29.01          13.18          69.85          51.91         -2.858         -13.52          175.7          83.51          173.1          107.7          13.32
    0.4634              -29.01          13.18          69.83          51.91         -2.858         -13.51          175.6          83.48          173.0          107.7          13.34
    0.4906               -29.0          13.18          69.81          51.91         -2.858         -13.51          175.5          83.45          172.8          107.8          13.36
    0.5179               -29.0          13.18          69.79           51.9         -2.858         -13.51          175.5          83.41          172.6          107.8          13.38
    0.5451               -29.0          13.18          69.77           51.9         -2.859          -13.5          175.3          83.37          172.4          107.8           13.4
    0.5724              -28.99          13.18          69.75           51.9         -2.859         -13.49          175.2          83.32          172.2          107.8          13.43
    0.5997              -28.99          13.18          69.73          51.89         -2.859         -13.49          175.1          83.27          172.0          107.8          13.46
    0.6269              -28.98          13.19           69.7          51.89          -2.86         -13.48          175.0          83.22          171.7          107.8          13.49
    0.6542              -28.98          13.19          69.67          51.88          -2.86         -13.47          174.8          83.16          171.4          107.8          13.52
    0.6814              -28.98          13.19          69.63          51.88          -2.86         -13.46          174.6          83.09          171.1          107.8          13.56
    0.7087              -28.97          13.19          69.59          51.87         -2.861         -13.45          174.4          83.02          170.7          107.8          13.61
